<?xml version="1.0" encoding="UTF-8" standalone="no"?>
<!-- Created with Inkscape (http://www.inkscape.org/) -->

<svg
   width="707.72034"
   height="707.52954"
   viewBox="0 0 707.72034 707.52954"
   version="1.1"
   id="svg1"
   xml:space="preserve"
   xmlns="http://www.w3.org/2000/svg"
   xmlns:svg="http://www.w3.org/2000/svg"><defs
     id="defs1"><linearGradient
       id="swatch71"><stop
         style="stop-color:#fdf9f8;stop-opacity:1;"
         offset="0"
         id="stop71" /></linearGradient></defs><g
     id="layer4"
     style="display:inline"
     transform="translate(-185.56615,-184.83595)"><ellipse
       style="display:inline;opacity:1;fill:#010424;fill-opacity:1;stroke:#fdf9f8;stroke-width:2.84;stroke-dasharray:none;stroke-opacity:1"
       id="path4"
       cx="539.42633"
       cy="538.60071"
       rx="352.44019"
       ry="352.34476" /></g><g
     id="g65"
     style="display:inline"
     transform="matrix(1,0,0,-1,-185.56615,539.38982)"><path
       id="path1"
       style="display:inline;opacity:1;fill:#fdf9f8;fill-opacity:1"
       d="M 539.88086,455.77655 C 453.28796,456.01486 354.98704,402.29088 242.11914,268.60858 354.98704,134.92628 453.94226,81.649569 540.53516,81.887879 619.397,81.743849 690.5653,125.99504 751.05273,179.70819 c 32.55671,28.91053 61.71833,59.35323 87.26758,88.74024 -25.01892,29.56379 -55.17766,61.09728 -87.92187,89.50781 -61.10092,53.01424 -131.65574,97.96434 -210.51758,97.82031 z m 10.49805,-42.8457 c 29.84094,-0.81674 96.6184,-12.09376 189.0625,-111.86524 9.16986,-9.89669 28.60748,-29.56773 28.55078,-32.36328 -0.33002,-2.8176 -18.75592,-22.15995 -28.05078,-31.99414 C 638.35565,129.228 568.90011,123.89662 539.87695,124.63983 c -7.4108,0.15697 -14.72025,0.0209 -22.04101,0.88086 -53.67951,6.30592 -105.9042,41.81092 -150.4961,83.67774 -20.38507,19.13931 -56.24251,57.06926 -56.73437,59.59179 0.49186,2.52253 35.9079,40.32749 56.29297,59.4668 50.6733,47.57657 111.58857,87.04978 172.98437,84.60938 2.72253,0.0827 6.2331,0.18112 10.4961,0.0645 z" /></g><g
     id="layer6"
     style="display:inline"
     transform="translate(-185.56615,-184.83595)"><ellipse
       style="display:inline;opacity:1;fill:#fdf9f8;fill-opacity:1;stroke-width:1.10251"
       id="path67"
       ry="17.686819"
       rx="17.7488"
       cy="455.77063"
       cx="539.16278" /></g><g
     id="layer7"
     style="display:inline"
     transform="translate(-185.56615,-184.83595)"><path
       id="path71"
       style="baseline-shift:baseline;display:inline;overflow:visible;opacity:1;vector-effect:none;fill:#fdf9f8;fill-opacity:1;stroke-width:0.999913;enable-background:accumulate;stop-color:#000000;stop-opacity:1"
       d="m 499.85116,336.47656 c -0.49511,-0.003 -0.99548,0.19631 -1.49804,0.48439 -1.22958,0.80323 -1.74794,1.89088 -1.60938,2.00781 -0.22789,0.43837 2.07768,5.99512 2.45508,6.85547 1.55659,3.54881 5.01675,11.37372 9.27538,20.87695 -44.7774,14.34961 -72.69376,57.89148 -65.82226,103.39062 0.87309,5.78109 2.27442,11.37579 4.1543,16.74219 9.93193,28.35229 33.19051,50.31125 62.125,59.46876 -4.25099,9.48644 -7.70521,17.29566 -9.25977,20.83984 -0.37736,0.86036 -2.68297,6.41709 -2.45507,6.85547 -0.12729,0.131 0.3894,1.21086 1.60938,2.00781 0.50256,0.28806 1.00293,0.48738 1.49804,0.48437 0.49512,-0.003 1.20366,-0.2726 1.68555,-0.79101 0.84272,-0.49395 6.39032,-12.07017 13.42188,-27.58008 7.46514,1.81593 15.25181,2.79514 23.24022,2.83593 8.71459,0.0445 17.2009,-1.02935 25.29884,-3.08983 7.23039,15.78238 12.86024,27.6588 13.76171,27.91601 1.03409,1.03685 1.99486,0.7851 3,0.20898 1.22958,-0.80322 1.74794,-1.89088 1.60938,-2.00781 0.22789,-0.43837 -2.07767,-5.99511 -2.45508,-6.85547 -1.57196,-3.58384 -5.08687,-11.52797 -9.40625,-21.15625 33.52266,-11.0135 59.25231,-39.28534 65.01563,-74.82617 7.39948,-45.63061 -20.37796,-89.73119 -65.40625,-104.33593 4.28101,-9.54413 7.76244,-17.40813 9.32421,-20.96875 0.37737,-0.86038 2.68297,-6.4171 2.45508,-6.85548 0.13856,-0.11693 -0.37982,-1.20458 -1.60937,-2.00781 -1.00515,-0.57611 -2.05185,-0.81615 -3.00001,0.20898 -2.48831,1.69535 -30.88883,66.8215 -37.88085,79.82618 -0.0122,0.0252 -0.0179,0.0492 -0.0605,0.0605 0.002,3.3e-4 -0.0268,-0.0119 -0.0293,-0.0136 9.9e-4,-2.1e-4 0.003,-0.002 0.004,-0.002 -0.0408,-0.0115 -0.0466,-0.0358 -0.0586,-0.0605 -17.47203,-35.53788 -35.22261,-78.09968 -37.69726,-79.72852 -0.48189,-0.51842 -1.19044,-0.78847 -1.68555,-0.79101 z m 10.53516,34.48437 c 10.04325,22.33796 23.30281,51.23643 27.21289,57.17188 0.54409,0.82597 1.51903,0.9094 1.68946,0.92188 0.1566,-0.0125 1.1569,-0.0957 1.70116,-0.92188 3.90681,-5.93049 17.15791,-34.77792 27.20509,-57.10351 43.20461,13.74878 69.76201,55.73988 62.6953,99.31835 -5.50485,33.94693 -30.17846,60.9637 -62.32226,71.36915 -10.03499,-22.29462 -23.21152,-50.97182 -27.10548,-56.88282 -0.54425,-0.82617 -1.58875,-0.89837 -1.70116,-0.92187 -0.11294,0.0235 -1.14535,0.0959 -1.68946,0.92187 -3.9149,5.9428 -17.20036,34.90463 -27.24804,57.25391 -33.03177,-10.2178 -58.31681,-37.88844 -63.56055,-72.60937 -6.55344,-43.3931 20.16082,-84.96484 63.12305,-98.51759 z m 29.40429,124.9336 c 0.0426,0.0113 0.0483,0.0354 0.0605,0.0606 3.63369,6.75843 13.43311,28.52343 22.15821,47.62695 -7.49686,1.84315 -15.33561,2.80086 -23.38283,2.75977 -7.3025,-0.0373 -14.42382,-0.89379 -21.26366,-2.48438 6.55898,-14.46927 14.47894,-31.88979 22.34375,-47.88672 0.0122,-0.0252 0.0179,-0.0492 0.0605,-0.0605 -10e-4,-3.2e-4 -0.005,-0.002 -0.006,-0.002 0.003,-0.002 0.0312,-0.014 0.0294,-0.0134 z" /></g><g
     id="layer9"
     style="display:inline"
     transform="translate(-185.56615,-184.83595)"><g
       id="g81"
       style="display:inline"><path
         id="path76"
         style="baseline-shift:baseline;display:inline;overflow:visible;opacity:1;vector-effect:none;fill:#fdf9f8;enable-background:accumulate;stop-color:#000000;stop-opacity:1"
         d="m -295.85938,665.30078 v 0.002 c 24.17876,0.21 43.82541,19.8342 43.89454,43.98047 0.0695,24.27352 -19.67011,44.08961 -44.02344,44.23242 -24.35334,0.14284 -44.3272,-19.44024 -44.54492,-43.71289 l 7.32226,-0.0664 c 0.18214,20.30583 16.75883,36.57679 37.17969,36.45703 20.42086,-0.11977 36.80227,-16.58407 36.74414,-36.89063 -0.0581,-20.30655 -16.53387,-36.67582 -36.95508,-36.67968 H -783.6875 c -20.43065,-0.0353 -36.94129,16.31692 -37.02539,36.63281 -0.0841,20.31588 16.29046,36.80501 36.7207,36.9375 20.43025,0.13249 37.01951,-16.14178 37.20117,-36.45703 l 7.32227,0.0645 c -0.21716,24.28376 -20.20788,43.87285 -44.57227,43.71484 -24.36438,-0.158 -44.09666,-20.00454 -43.99609,-44.28906 0.0995,-24.02573 19.57471,-43.54725 43.58399,-43.91992 v -0.006 h 0.77734 z"
         transform="scale(-1,1)" /></g></g><g
     id="layer10"
     style="display:inline"
     transform="translate(-185.56615,-184.83595)"><path
       style="baseline-shift:baseline;display:inline;overflow:visible;opacity:1;fill:#fdf9f8;stroke:#fdf9f8;stroke-width:3.68407;stroke-dasharray:none;stroke-opacity:1;enable-background:accumulate;stop-color:#000000;stop-opacity:1"
       d="m 682.57422,706.39319 c -5.76696,0 -11.53294,1.43992 -16.70358,4.3208 -10.27472,5.72464 -16.64332,16.30516 -16.72507,27.78123 h -0.0137 v 0.19164 c 0,0.01 -0.002,0.0192 -0.002,0.029 h 0.002 l -0.002,133.35611 c 1.64513,-0.53434 1.80626,-0.59282 3.65916,-1.21183 v -132.14428 -0.21874 -0.002 c 0.0806,-10.1531 5.71912,-19.51875 14.87498,-24.62001 9.22214,-5.1382 20.60009,-5.1382 29.82223,0 9.18041,5.11494 14.82407,14.51679 14.87499,24.70131 h -0.002 v 105.88075 c 1.63197,-0.91376 1.95168,-1.10274 3.65916,-2.07522 V 738.71586 h 0.002 c 0,-0.01 -0.002,-0.0192 -0.002,-0.029 v -0.11034 h -0.008 c -0.0518,-11.50775 -6.43168,-22.12423 -16.73093,-27.86253 -5.17064,-2.88088 -10.93857,-4.3208 -16.70553,-4.3208 z"
       id="path2" /><path
       style="baseline-shift:baseline;display:inline;overflow:visible;opacity:1;fill:#fdf9f8;stroke:#fdf9f8;stroke-width:3.68305;stroke-dasharray:none;stroke-opacity:1;enable-background:accumulate;stop-color:#000000;stop-opacity:1"
       d="m 586.97461,706.39202 c -5.76693,0 -11.53288,1.43914 -16.70351,4.31844 -10.27118,5.71956 -16.63898,16.28911 -16.72499,27.7544 h -0.0137 v 0.20315 c -10e-6,0.01 -0.002,0.0192 -0.002,0.029 h 0.002 v 150.40201 c 1.63494,-0.0767 1.69525,-0.0787 3.65523,-0.17219 l 0.004,-150.462 c 0.0849,-10.14288 5.72079,-19.49847 14.87295,-24.59491 9.22211,-5.13539 20.6,-5.13539 29.82211,0 9.16879,5.10569 14.80998,14.48496 14.87491,24.64909 3.7e-4,0.0591 0,0.11883 0,0.178 l -0.002,142.1405 c 1.62781,-0.36865 1.74839,-0.39702 3.65915,-0.83969 V 738.69704 h 0.002 c 0,-0.01 -0.002,-0.0192 -0.002,-0.029 v -0.14897 h -0.01 c -0.066,-11.4864 -6.44137,-22.07991 -16.7289,-27.80858 -5.17062,-2.8793 -10.93853,-4.31844 -16.70546,-4.31844 z"
       id="path78" /><path
       id="path80"
       style="baseline-shift:baseline;display:inline;overflow:visible;opacity:1;fill:#fdf9f8;stroke:#fdf9f8;stroke-width:3.68548;stroke-dasharray:none;stroke-opacity:1;enable-background:accumulate;stop-color:#000000;stop-opacity:1"
       d="m 491.27539,706.39321 c -5.76672,0 -11.53245,1.44109 -16.70289,4.32428 -10.31554,5.75225 -16.70681,16.40062 -16.73805,27.93922 -8e-5,0.0284 0,0.0569 0,0.0852 v 141.43976 c 1.26643,0.29067 1.96274,0.44654 3.65315,0.84471 l 0.004,-142.28447 v -0.0852 c 0.0312,-10.21353 5.67809,-19.64734 14.87435,-24.77545 9.22177,-5.14234 20.59924,-5.14234 29.821,0 9.19861,5.12941 14.84604,14.5667 14.87437,24.78319 v 0.0775 150.42348 c 1.76447,0.0822 1.76924,0.083 3.65314,0.16468 l 0.006,-150.58816 v -0.0775 h -0.006 c -0.0288,-11.54112 -6.41663,-22.19362 -16.73414,-27.94696 -5.17043,-2.88319 -10.93812,-4.32428 -16.70484,-4.32428 z" /><path
       id="path81"
       style="baseline-shift:baseline;display:inline;overflow:visible;opacity:1;fill:#fdf9f8;stroke:#fdf9f8;stroke-width:3.67874;stroke-dasharray:none;stroke-opacity:1;enable-background:accumulate;stop-color:#000000;stop-opacity:1"
       d="m 395.87695,706.39079 c -5.76697,0 -11.53394,1.43563 -16.70504,4.30793 -10.33517,5.74067 -16.73153,16.37685 -16.74021,27.89538 -10e-6,0.008 -0.002,0.0153 -0.002,0.0231 h 0.002 l -0.002,103.33433 c 1.22993,0.69713 2.46412,1.40144 3.65557,2.06518 l 0.006,-105.42268 h -0.002 c 0.008,-10.19882 5.66008,-19.62442 14.87627,-24.74357 9.22297,-5.1229 20.59994,-5.1229 29.8229,0 9.22296,5.1229 14.87628,14.5593 14.87628,24.76674 l 0.004,131.73539 c 1.59682,0.53532 2.28856,0.76339 3.64972,1.20631 l 0.006,-132.9417 v -0.0154 h -0.002 c -0.006,-11.52152 -6.40271,-22.16113 -16.74022,-27.9031 -5.17109,-2.8723 -10.93807,-4.30793 -16.70504,-4.30793 z" /></g></svg>
